<?xml version="1.0" encoding="utf-8"?>
<!-- Generator: Adobe Illustrator 16.0.3, SVG Export Plug-In . SVG Version: 6.00 Build 0)  -->
<!DOCTYPE svg PUBLIC "-//W3C//DTD SVG 1.1//EN" "http://www.w3.org/Graphics/SVG/1.1/DTD/svg11.dtd">
<svg version="1.1" id="Layer_1" xmlns="http://www.w3.org/2000/svg" xmlns:xlink="http://www.w3.org/1999/xlink" x="0px" y="0px"
	 width="40px" height="40px" viewBox="12 12 40 40" enable-background="new 12 12 40 40" xml:space="preserve">
<path d="M50.033,28.847h-9.17c-0.793-2.955-3.103-5.262-6.059-6.051l-0.186-1.485l2.354-0.453c0.609-0.112,1.131-0.501,1.411-1.054
	c0.427-0.859,0.075-1.902-0.784-2.329c-0.238-0.119-0.502-0.18-0.769-0.181h-2.702v-0.096c-0.139-1.169-1.198-2.004-2.367-1.865
	c-0.978,0.116-1.749,0.887-1.865,1.865v0.104h-2.732c-0.96,0.002-1.736,0.782-1.733,1.742c0.001,0.267,0.063,0.529,0.181,0.768
	c0.282,0.55,0.803,0.937,1.411,1.047l2.354,0.431l-0.186,1.485c-2.956,0.789-5.265,3.096-6.058,6.051h-9.17
	c-0.976,0.024-1.747,0.835-1.722,1.811c0.022,0.898,0.715,1.637,1.611,1.716l1.589,0.097c-0.188,0.349-0.287,0.74-0.29,1.136
	c0,1.369,1.111,2.479,2.48,2.479c1.37,0,2.479-1.11,2.48-2.479c-0.006-0.29-0.064-0.577-0.171-0.847l3.081,0.187
	c0.81,4.38,4.611,7.803,8.977,7.803c4.365,0,8.168-3.416,8.978-7.803l3.073-0.187c-0.105,0.278-0.164,0.571-0.171,0.868
	c0,1.37,1.11,2.48,2.479,2.48c1.37,0,2.479-1.11,2.479-2.48c-0.002-0.396-0.102-0.786-0.289-1.136l1.589-0.096
	c0.973-0.086,1.691-0.944,1.604-1.916c-0.079-0.895-0.817-1.588-1.716-1.611H50.033z M17.631,34.602
	c-0.549-0.005-0.992-0.453-0.988-1.002c0.004-0.551,0.453-0.993,1.002-0.989c0.546,0.005,0.987,0.449,0.987,0.995
	c0,0.55-0.445,0.996-0.995,0.996C17.636,34.602,17.634,34.602,17.631,34.602z M46.366,34.602c-0.551,0-0.996-0.446-0.996-0.996
	c0-0.549,0.445-0.995,0.996-0.995c0.549,0,0.994,0.446,0.994,0.995C47.36,34.155,46.915,34.602,46.366,34.602L46.366,34.602z
	 M36.831,18.809c0.087-0.002,0.167,0.043,0.208,0.119c0.045,0.076,0.045,0.169,0,0.245c-0.069,0.135-0.198,0.229-0.349,0.253
	l-2.264,0.416L34.3,18.809H36.831z M27.291,19.425c-0.15-0.024-0.28-0.118-0.349-0.253c-0.043-0.076-0.043-0.169,0-0.245
	c0.042-0.076,0.122-0.121,0.208-0.119h2.517l-0.126,1.032L27.291,19.425z M31.352,17.397c0.055-0.357,0.388-0.602,0.745-0.548
	c0.282,0.043,0.505,0.265,0.548,0.548l0.63,5.094c-0.847-0.109-1.706-0.109-2.553,0L31.352,17.397z M13.941,30.889
	c-0.146-0.008-0.26-0.129-0.26-0.275c0-0.156,0.126-0.282,0.282-0.282h8.91c0,0.245,0,0.489,0,0.742c0,0.119,0,0.23,0,0.341
	L13.941,30.889z M31.998,39.241c-4.083,0-7.669-3.816-7.669-8.167c0-4.091,3.296-7.172,7.669-7.172c4.374,0,7.67,3.081,7.67,7.172
	C39.668,35.425,36.082,39.241,31.998,39.241z M50.056,30.889l-8.91,0.535c0-0.112,0-0.23,0-0.349c0-0.253,0-0.498,0-0.742h8.91
	c0.155,0,0.282,0.126,0.282,0.282l0,0c0,0.152-0.123,0.275-0.275,0.275C50.061,30.889,50.059,30.889,50.056,30.889z"/>
<path d="M35.258,27.125h-6.519c-0.546-0.002-1.064,0.247-1.403,0.675c-0.534,0.653-0.924,1.413-1.144,2.228
	c-0.146,0.548-0.028,1.133,0.319,1.582c0.336,0.443,0.862,0.701,1.418,0.698h8.168c0.556,0.003,1.08-0.255,1.418-0.698
	c0.347-0.449,0.465-1.033,0.318-1.582c-0.22-0.815-0.609-1.574-1.144-2.228C36.345,27.363,35.814,27.113,35.258,27.125z
	 M33.03,28.609v2.228h-2.042v-2.228H33.03z M27.707,30.71c-0.066-0.084-0.085-0.195-0.052-0.297
	c0.165-0.615,0.455-1.188,0.854-1.685c0.063-0.074,0.155-0.117,0.252-0.119h0.743v2.228H27.93c-0.097-0.001-0.188-0.048-0.245-0.126
	H27.707z M36.335,30.71c-0.06,0.075-0.15,0.119-0.246,0.119h-1.596v-2.228h0.742c0.098,0.002,0.188,0.045,0.253,0.119
	c0.399,0.498,0.69,1.075,0.854,1.692c0.041,0.098,0.03,0.209-0.029,0.297H36.335z"/>
<path d="M50.854,40.39c-3.369,0.002-6.493,1.758-8.247,4.634c-0.729-0.336-1.523-0.509-2.325-0.505
	c-2.748,0.005-5.088,2-5.525,4.713h-0.265c-0.488,0-0.884,0.395-0.884,0.883c0,0.489,0.396,0.886,0.884,0.886h1.043
	c0.488,0,0.884-0.396,0.884-0.886c0.006-2.117,1.729-3.83,3.849-3.825c0.769,0.003,1.521,0.236,2.154,0.671l0,0
	c0.47,0.325,0.862,0.75,1.149,1.245c0.158,0.275,0.451,0.443,0.769,0.442c0.155-0.002,0.309-0.044,0.442-0.124
	c0.417-0.245,0.56-0.781,0.318-1.201c-0.283-0.483-0.635-0.921-1.045-1.3c1.427-2.397,4.01-3.866,6.799-3.864
	c0.489,0,0.885-0.395,0.885-0.883S51.343,40.39,50.854,40.39L50.854,40.39z"/>
<path d="M30.823,49.231h-1.556c-0.434-2.712-2.771-4.708-5.517-4.713c-0.802-0.004-1.596,0.169-2.325,0.505
	c-1.76-2.888-4.902-4.644-8.283-4.634c-0.489,0-0.884,0.397-0.884,0.886s0.396,0.883,0.884,0.883
	c2.788-0.002,5.372,1.467,6.797,3.864c-0.41,0.379-0.761,0.816-1.043,1.3c-0.241,0.42-0.099,0.956,0.319,1.201
	c0.133,0.08,0.286,0.122,0.442,0.124c0.316,0.001,0.61-0.167,0.768-0.442c0.287-0.495,0.679-0.92,1.149-1.245l0,0
	c1.744-1.196,4.126-0.75,5.322,0.994c0.265,0.387,0.458,0.819,0.566,1.277h-0.177c-0.488,0-0.884,0.395-0.884,0.883
	c0,0.489,0.396,0.886,0.884,0.886h3.537c0.488,0,0.884-0.396,0.884-0.886C31.707,49.626,31.311,49.231,30.823,49.231z"/>
</svg>
