<?xml version="1.0" encoding="utf-8"?>
<!-- Generator: Adobe Illustrator 16.0.3, SVG Export Plug-In . SVG Version: 6.00 Build 0)  -->
<!DOCTYPE svg PUBLIC "-//W3C//DTD SVG 1.0//EN" "http://www.w3.org/TR/2001/REC-SVG-20010904/DTD/svg10.dtd">
<svg version="1.0" xmlns="http://www.w3.org/2000/svg" xmlns:xlink="http://www.w3.org/1999/xlink" x="0px" y="0px" width="40px"
	 height="40px" viewBox="0 0 40 40" enable-background="new 0 0 40 40" xml:space="preserve">
<g id="Layer_1">
	<g>
		<path fill="#009245" d="M31,20c0,1.917,0,14,0,14c0,1.547-1.453,3-3,3H6c-1.546,0-3-1.453-3-3V12c0.042-1.625,1.454-3,3-3
			c0,0,19.625,0,21,0c1.875,0,1.791-3,0-3S6,6,6,6c-3.198,0-6,2.802-6,6v22c0,3.198,2.802,6,6,6h22c3.198,0,6-2.802,6-6
			c0,0,0-11.709,0-14C34,17.708,31,18.083,31,20z"/>
	</g>
</g>
<g id="Layer_2">
	
		<polyline fill="none" stroke="#009245" stroke-width="5" stroke-linecap="round" stroke-linejoin="round" stroke-miterlimit="10" points="
		5.875,20.875 15.375,31.125 37.5,5 	"/>
</g>
</svg>
