<svg version="1.1" id="_x32_" xmlns="http://www.w3.org/2000/svg" xmlns:xlink="http://www.w3.org/1999/xlink" x="0px" y="0px"
	 width="40px" height="40px" viewBox="12 12 40 40" enable-background="new 12 12 40 40" xml:space="preserve">
<path d="M28.179,28.18l0.327-1.594l-5.326-3.513c-0.029-0.02-0.072-0.016-0.098,0.011c-0.025,0.024-0.029,0.067-0.009,0.097
	l3.513,5.325L28.179,28.18z"/>
<path d="M37.413,35.493L35.82,35.82l-0.327,1.593l5.326,3.515c0.03,0.021,0.071,0.015,0.099-0.011
	c0.024-0.026,0.028-0.066,0.007-0.097L37.413,35.493z"/>
<path d="M37.413,28.506l3.515-5.325c0.019-0.03,0.015-0.073-0.01-0.097c-0.027-0.027-0.068-0.031-0.099-0.011l-5.326,3.513
	l0.327,1.594L37.413,28.506z"/>
<path d="M26.586,35.493l-3.513,5.327c-0.02,0.03-0.016,0.07,0.009,0.097c0.026,0.025,0.069,0.032,0.098,0.011l5.326-3.515
	l-0.327-1.593L26.586,35.493z"/>
<path d="M47.92,31.92l-13.147-2.693L32.08,16.082c-0.009-0.039-0.041-0.065-0.08-0.065s-0.071,0.026-0.08,0.065l-2.693,13.145
	L16.08,31.92c-0.036,0.009-0.063,0.041-0.063,0.08s0.027,0.071,0.063,0.08l13.147,2.694l2.693,13.144
	c0.009,0.04,0.041,0.065,0.08,0.065s0.071-0.025,0.08-0.065l2.692-13.144L47.92,32.08c0.036-0.009,0.063-0.041,0.063-0.08
	S47.956,31.929,47.92,31.92z M32,33.97c-1.089,0-1.971-0.883-1.971-1.97c0-1.087,0.882-1.971,1.971-1.971
	c1.088,0,1.97,0.883,1.97,1.971C33.97,33.087,33.088,33.97,32,33.97z"/>
<path d="M50.194,24.316c-1.504-3.546-4.006-6.557-7.156-8.688c-1.575-1.064-3.314-1.91-5.17-2.488
	C36.012,12.562,34.037,12.25,32,12.25c-2.717,0-5.32,0.555-7.684,1.555c-3.546,1.504-6.557,4.007-8.688,7.157
	c-1.065,1.576-1.911,3.314-2.489,5.17S12.25,29.963,12.25,32c0,2.719,0.555,5.321,1.555,7.684c1.504,3.546,4.006,6.556,7.157,8.688
	c1.576,1.065,3.314,1.911,5.17,2.489c1.856,0.579,3.831,0.89,5.868,0.89c2.717,0,5.321-0.555,7.684-1.557
	c3.546-1.502,6.556-4.005,8.688-7.155c1.065-1.575,1.911-3.314,2.489-5.17c0.579-1.856,0.89-3.831,0.89-5.868
	C51.75,29.283,51.195,26.68,50.194,24.316z M48.174,38.822c-1.333,3.146-3.565,5.835-6.371,7.73
	c-1.401,0.949-2.945,1.697-4.591,2.21c-1.645,0.514-3.393,0.791-5.212,0.791c-2.424,0-4.724-0.492-6.822-1.38
	c-3.146-1.332-5.833-3.565-7.73-6.371c-0.95-1.401-1.698-2.944-2.21-4.591c-0.514-1.645-0.79-3.393-0.791-5.212
	c0.001-2.425,0.493-4.725,1.38-6.822c1.332-3.146,3.566-5.833,6.37-7.73c1.402-0.948,2.945-1.698,4.59-2.211
	c1.646-0.513,3.393-0.789,5.213-0.789c2.427,0,4.726,0.492,6.823,1.38c3.146,1.331,5.833,3.565,7.729,6.369
	c0.949,1.402,1.697,2.947,2.21,4.59c0.514,1.647,0.791,3.393,0.791,5.213C49.553,34.425,49.062,36.725,48.174,38.822z"/>
</svg>
