<?xml version="1.0" encoding="utf-8"?>
<!-- Generator: Adobe Illustrator 16.0.3, SVG Export Plug-In . SVG Version: 6.00 Build 0)  -->
<!DOCTYPE svg PUBLIC "-//W3C//DTD SVG 1.1//EN" "http://www.w3.org/Graphics/SVG/1.1/DTD/svg11.dtd">
<svg version="1.1" id="Layer_1" xmlns="http://www.w3.org/2000/svg" xmlns:xlink="http://www.w3.org/1999/xlink" x="0px" y="0px"
	 width="40px" height="40px" viewBox="12 12 40 40" enable-background="new 12 12 40 40" xml:space="preserve">
<path d="M51.919,50.479l-1.976-4.991c-0.165-0.425-0.574-0.701-1.031-0.701h-2.315l-2.378-17.36c-0.408-3.149-3.102-5.52-6.283-5.52
	h-11.88c-3.173,0-5.874,2.37-6.275,5.511l-2.378,17.361h-2.315c-0.457,0-0.866,0.275-1.031,0.701l-1.977,4.999
	c-0.291,0.732,0.252,1.52,1.031,1.52h37.776C51.667,51.998,52.21,51.211,51.919,50.479z M21.985,27.709
	c0.26-2.047,2.016-3.583,4.079-3.583h11.881c2.063,0,3.811,1.543,4.078,3.59l2.339,17.062H19.646L21.985,27.709z M14.75,49.778
	l1.094-2.771h32.312l1.095,2.771H14.75z"/>
<g id="Group_2">
	<polygon points="30.338,28.165 30.338,30.496 30.882,37.267 33.102,37.267 33.661,30.496 33.661,28.165 	"/>
	<circle cx="32" cy="40.188" r="1.653"/>
</g>
<g id="group_1">
	<path d="M17.868,22.93l-3.26-1.779c-0.535-0.292-1.212-0.095-1.503,0.441c-0.292,0.536-0.094,1.212,0.449,1.504l3.251,1.779
		c0.536,0.291,1.212,0.094,1.503-0.441C18.6,23.898,18.403,23.221,17.868,22.93z"/>
	<path d="M24.725,17.789l-1.826-3.007c-0.315-0.528-1-0.693-1.527-0.371c-0.528,0.315-0.693,1-0.371,1.528l1.827,3.007
		c0.315,0.528,1,0.693,1.527,0.37C24.882,18.993,25.047,18.316,24.725,17.789z"/>
	<path d="M32,12.001c-0.614,0-1.11,0.496-1.11,1.11v3.417c0,0.614,0.496,1.11,1.11,1.11s1.11-0.496,1.11-1.11v-3.417
		C33.11,12.498,32.614,12.001,32,12.001z"/>
	<path d="M42.629,14.411c-0.527-0.315-1.204-0.149-1.527,0.371l-1.827,3.007c-0.314,0.527-0.149,1.212,0.371,1.527
		c0.526,0.323,1.204,0.149,1.526-0.37l1.827-3.007C43.314,15.411,43.148,14.734,42.629,14.411z"/>
	<path d="M50.888,21.591c-0.291-0.536-0.969-0.74-1.503-0.441l-3.261,1.779c-0.534,0.292-0.731,0.96-0.44,1.504
		c0.292,0.535,0.969,0.74,1.504,0.441l3.259-1.779C50.982,22.804,51.188,22.127,50.888,21.591z"/>
</g>
</svg>
