<?xml version="1.0" encoding="utf-8"?>
<!-- Generator: Adobe Illustrator 16.0.3, SVG Export Plug-In . SVG Version: 6.00 Build 0)  -->
<!DOCTYPE svg PUBLIC "-//W3C//DTD SVG 1.1//EN" "http://www.w3.org/Graphics/SVG/1.1/DTD/svg11.dtd">
<svg version="1.1" id="Layer_1" xmlns:serif="http://www.serif.com/"
	 xmlns="http://www.w3.org/2000/svg" xmlns:xlink="http://www.w3.org/1999/xlink" x="0px" y="0px" width="40px" height="40px"
	 viewBox="12 12 40 40" enable-background="new 12 12 40 40" xml:space="preserve">
<g id="hammer">
	<path d="M28.908,16.122c-2.499,1.44-3.145,3.121-3.407,4.486c-0.218,1.134,0.333,2.214,1.065,3.097l-1.538,1.537
		c-0.73-0.439-1.665-0.81-2.743-0.81c-0.78,0-1.543,0.198-2.255,0.581c0.54-1.164,0.53-2.439,0.415-3.341
		c1.47-1.592,4.319-4.324,6.626-5.144C27.564,16.352,28.183,16.216,28.908,16.122 M18.008,27.05
		c-0.312,0.729-0.353,1.527-0.209,2.29l-2.064-2.063c0.252,0.05,0.518,0.08,0.793,0.08C17.05,27.356,17.548,27.252,18.008,27.05
		 M30.983,28l17.394,16.777l-2.38,2.382L29.479,29.505L30.983,28 M31.675,13.965c-1.859,0-3.814,0.16-5.272,0.677
		c-3.806,1.353-8.11,6.442-8.11,6.442s0.751,2.461-0.536,3.748c-0.389,0.389-0.818,0.525-1.229,0.525
		c-0.945,0-1.787-0.722-1.787-0.722l-1.973,2.504l4.978,4.978l2.499-1.977c0,0-1.182-1.773-0.014-2.833
		c0.709-0.644,1.411-0.875,2.053-0.875c1.635,0,2.882,1.499,2.882,1.499l4.263-4.261c0,0-2.165-1.651-1.966-2.683
		c0.199-1.032,0.649-2.49,3.784-3.784s6.059-1.411,6.059-1.411l0.105-1.412C37.413,14.379,34.67,13.965,31.675,13.965L31.675,13.965
		z M30.958,25.197l-4.262,4.262l19.253,20.576l5.282-5.283L30.958,25.197L30.958,25.197z"/>
</g>
</svg>
