<svg version="1.1" id="Layer_1" xmlns:serif="http://www.serif.com/"
	 xmlns="http://www.w3.org/2000/svg" xmlns:xlink="http://www.w3.org/1999/xlink" x="0px" y="0px" width="40px" height="40px"
	 viewBox="0 -3.5 40 40" enable-background="new 0 -3.5 40 40" xml:space="preserve">
<path d="M3.304-3.105C1.476-3.105,0-1.631,0,0.198C0,2.025,1.476,3.5,3.304,3.5s3.303-1.475,3.303-3.302
	C6.606-1.631,5.132-3.105,3.304-3.105z"/>
<path d="M3.304,7.893C1.476,7.893,0,9.369,0,11.197C0,13.024,1.476,14.5,3.304,14.5s3.303-1.476,3.303-3.303
	C6.606,9.369,5.132,7.893,3.304,7.893z"/>
<path d="M3.304,18.893C1.464,18.893,0,20.38,0,22.196C0,24.014,1.486,25.5,3.304,25.5c1.816,0,3.303-1.486,3.303-3.304
	C6.606,20.38,5.143,18.893,3.304,18.893z"/>
<rect x="13.228" y="20.405" width="26.612" height="3.338"/>
<path d="M3.304,29.893C1.464,29.893,0,31.38,0,33.196C0,35.014,1.486,36.5,3.304,36.5c1.816,0,3.303-1.486,3.303-3.304
	C6.606,31.38,5.143,29.893,3.304,29.893z"/>
<rect x="13.228" y="31.405" width="26.612" height="3.338"/>
<rect x="13.228" y="-1.585" width="26.612" height="3.305"/>
<rect x="13.228" y="9.403" width="26.612" height="3.318"/>
</svg>
