<?xml version="1.0" encoding="utf-8"?>
<!-- Generator: Adobe Illustrator 16.0.3, SVG Export Plug-In . SVG Version: 6.00 Build 0)  -->
<!DOCTYPE svg PUBLIC "-//W3C//DTD SVG 1.1//EN" "http://www.w3.org/Graphics/SVG/1.1/DTD/svg11.dtd">
<svg version="1.1" id="Layer_1" xmlns="http://www.w3.org/2000/svg" xmlns:xlink="http://www.w3.org/1999/xlink" x="0px" y="0px"
	 width="40px" height="40px" viewBox="12 12 40 40" enable-background="new 12 12 40 40" xml:space="preserve">
<path d="M46.283,33.817l1.709-1.71v13.693c0,1.21-0.98,2.19-2.19,2.191H32.109l1.709-1.709h11.983c0.266,0,0.481-0.216,0.481-0.481
	l0,0V33.817z M15.5,17.691v28.11c0,1.21,0.98,2.19,2.191,2.191h2.769l0.732-1.709h-3.5c-0.266,0-0.481-0.216-0.481-0.481l0,0V17.689
	c0.001-0.265,0.216-0.479,0.481-0.479h28.112c0.266,0,0.481,0.215,0.481,0.481l0,0v1.915c0.533-0.251,1.123-0.353,1.71-0.296v-1.619
	c0-1.21-0.981-2.191-2.191-2.191c0,0,0,0-0.001,0H17.689C16.48,15.501,15.5,16.481,15.5,17.691z M46.539,21.47
	c0.648-0.641,1.692-0.635,2.334,0.013c0.012,0.012,0.023,0.025,0.036,0.038l2.416,2.417c0.668,0.62,0.707,1.664,0.087,2.332
	c-0.012,0.012-0.023,0.024-0.035,0.037L28.883,48.798l-7.005,3.003c-0.321,0.14-0.695-0.009-0.833-0.33
	c-0.069-0.16-0.07-0.342-0.001-0.502l3.003-7.007L46.539,21.47z M27.508,47.527l-2.188-2.188l-1.642,3.83L27.508,47.527z
	 M46.442,28.822l-2.417-2.418L26.414,44.015l2.417,2.419L46.442,28.822z M47.231,23.196l-1.999,2l2.418,2.417l1.971-1.968
	c0.275-0.276,0.279-0.722,0.01-1.004l-1.375-1.433c-0.274-0.287-0.729-0.296-1.016-0.022c-0.003,0.003-0.007,0.007-0.011,0.01
	H47.231z"/>
</svg>
