<svg version="1.1" id="Layer_1" xmlns="http://www.w3.org/2000/svg" xmlns:xlink="http://www.w3.org/1999/xlink" x="0px" y="0px"
	 width="40px" height="40px" viewBox="0 0 40 40" enable-background="new 0 0 40 40" xml:space="preserve">
<g>
	<path d="M26.631,39.5c-2.314,0-4.558-0.742-6.316-2.091l-0.302-0.232l-0.304,0.23c-1.773,1.344-4.028,2.084-6.35,2.084
		s-4.578-0.74-6.351-2.084l-0.304-0.23l-0.303,0.231c-1.441,1.104-3.161,1.798-4.972,2.006c-0.035,0.004-0.068,0.006-0.101,0.006
		c-0.42,0-0.773-0.307-0.822-0.713c-0.025-0.206,0.034-0.41,0.165-0.576c0.138-0.175,0.338-0.285,0.564-0.311
		c1.84-0.213,3.572-1.034,4.877-2.313c0.157-0.154,0.367-0.239,0.591-0.239s0.434,0.085,0.591,0.239
		c0.646,0.631,1.406,1.152,2.258,1.548l1.113,0.518L5.913,25.03c-0.155-0.409,0.05-0.856,0.467-1.02l2.162-0.847v-6.226
		c0-1.443,0.935-2.735,2.326-3.216l0.336-0.117V9.121c0-1.88,1.56-3.409,3.477-3.409h1.849V3.909c0-1.879,1.559-3.409,3.476-3.409
		c0.939,0,1.822,0.357,2.486,1.004c0.661,0.644,1.024,1.498,1.024,2.404v1.804h1.814c1.937,0,3.512,1.529,3.512,3.409v4.491
		l0.335,0.117c1.392,0.486,2.326,1.775,2.326,3.208v6.243l2.128,0.83c0.418,0.165,0.623,0.617,0.465,1.028l-4.869,12.575
		l1.104-0.489c0.909-0.402,1.718-0.947,2.403-1.618c0.158-0.153,0.37-0.239,0.593-0.239c0.22,0,0.436,0.087,0.591,0.239
		c1.305,1.275,3.027,2.096,4.852,2.31c0.226,0.026,0.426,0.138,0.563,0.313c0.13,0.166,0.188,0.371,0.162,0.578
		c-0.05,0.404-0.403,0.709-0.823,0.709c0,0-0.068-0.002-0.103-0.007c-1.799-0.211-3.507-0.903-4.94-2.001l-0.302-0.232l-0.304,0.23
		C31.24,38.757,28.97,39.5,26.631,39.5z M7.75,25.208l4.791,12.646l0.326,0.017c0.162,0.009,0.325,0.013,0.487,0.013
		c2.313,0,4.524-0.866,6.068-2.377c0.158-0.154,0.367-0.239,0.591-0.239c0.224,0,0.434,0.085,0.591,0.239
		c1.543,1.51,3.751,2.376,6.06,2.376c0.12,0,0.24-0.003,0.36-0.007l0.328-0.013l4.902-12.655l-1.715-0.674
		c-0.143-0.039-0.218-0.068-0.286-0.107l-9.419-3.69v7.528c0,0.442-0.373,0.802-0.831,0.802s-0.831-0.359-0.831-0.802v-7.528
		L7.75,25.208z M20.012,18.741c0.11,0,0.217,0.021,0.316,0.063l9.513,3.724v-5.59c0-0.994-0.829-1.802-1.849-1.802H12.035
		c-1.018,0-1.831,0.809-1.831,1.802v5.577l9.486-3.714C19.806,18.76,19.91,18.741,20.012,18.741z M14.681,7.318
		c-1,0-1.814,0.809-1.814,1.803v4.408h14.312V9.121c0-0.994-0.829-1.803-1.849-1.803H14.681z M20.005,2.106
		c-1,0-1.814,0.809-1.814,1.803v1.803h3.664V3.909C21.854,2.915,21.024,2.106,20.005,2.106z"/>
	<path d="M20.005,1c0.808,0,1.567,0.306,2.138,0.862c0.563,0.549,0.873,1.276,0.873,2.046v1.304v1h1h1.314
		c1.661,0,3.012,1.305,3.012,2.909v4.136v0.71l0.67,0.234c1.191,0.416,1.991,1.516,1.991,2.737v5.901v0.684l0.637,0.248l1.806,0.704
		c0.161,0.064,0.242,0.233,0.185,0.383l-4.434,11.449l-0.873,2.255l2.211-0.979c0.964-0.427,1.822-1.005,2.547-1.715
		c0.065-0.063,0.155-0.1,0.246-0.1s0.179,0.035,0.241,0.097c1.383,1.353,3.21,2.222,5.141,2.448
		c0.126,0.015,0.197,0.085,0.229,0.125c0.033,0.043,0.071,0.114,0.06,0.21c-0.019,0.152-0.156,0.267-0.364,0.267
		c-0.002,0-0.005,0-0.007,0c-1.709-0.201-3.333-0.859-4.694-1.902l-0.605-0.463l-0.606,0.46C31.024,38.293,28.861,39,26.631,39
		c-2.205,0-4.34-0.706-6.012-1.988l-0.605-0.464l-0.607,0.461c-1.687,1.278-3.834,1.982-6.048,1.982s-4.362-0.704-6.049-1.982
		l-0.607-0.46l-0.605,0.463c-1.37,1.049-3.004,1.708-4.77,1.908c-0.165,0-0.308-0.119-0.326-0.271
		c-0.011-0.094,0.026-0.165,0.061-0.207c0.032-0.041,0.104-0.11,0.229-0.125c1.949-0.225,3.785-1.096,5.169-2.452
		c0.085-0.084,0.188-0.097,0.242-0.097c0.053,0,0.156,0.013,0.242,0.097c0.686,0.671,1.493,1.225,2.396,1.645l2.226,1.033
		l-0.87-2.295L6.38,24.853c-0.057-0.149,0.023-0.314,0.183-0.376l1.843-0.722l0.635-0.249v-0.683v-5.885
		c0-1.23,0.799-2.333,1.989-2.744l0.673-0.233v-0.712V9.121c0-1.604,1.335-2.909,2.977-2.909h1.349h1v-1V3.909
		C17.029,2.305,18.364,1,20.005,1 M17.691,6.211h1h2.664h1v-1V3.909c0-1.27-1.054-2.303-2.35-2.303
		c-1.276,0-2.314,1.033-2.314,2.303v1.303V6.211 M12.367,14.029h1h13.312h1v-1V9.121c0-1.27-1.054-2.303-2.349-2.303H14.681
		c-1.276,0-2.314,1.033-2.314,2.303v3.908V14.029 M9.704,23.248l1.365-0.535l8.781-3.438l0.021-0.008
		c0.049-0.017,0.097-0.026,0.142-0.026c0.043,0,0.084,0.008,0.147,0.034l8.818,3.452l1.364,0.533v-1.465v-4.858
		c0-1.27-1.054-2.302-2.349-2.302H12.018c-1.276,0-2.313,1.033-2.313,2.302v4.844V23.248 M13.354,38.384
		c2.442,0,4.782-0.918,6.418-2.52c0.085-0.084,0.188-0.097,0.241-0.097c0.053,0,0.156,0.013,0.242,0.097
		c1.635,1.601,3.972,2.519,6.409,2.519c0.127,0,0.253-0.003,0.379-0.008l0.657-0.025l0.237-0.612l4.604-11.885l0.359-0.929
		l-0.927-0.363l-1.251-0.491l-0.063-0.024l-0.065-0.017c-0.034-0.008-0.065-0.021-0.094-0.037l-0.063-0.035l-0.067-0.026
		L21.7,20.537l-1.364-0.533v1.465v6.796c0,0.166-0.148,0.302-0.331,0.302s-0.331-0.136-0.331-0.302v-6.796v-1.465l-1.364,0.534
		L8.028,24.562l-0.921,0.361l0.351,0.925l4.5,11.879l0.231,0.61l0.652,0.034C13.012,38.38,13.184,38.384,13.354,38.384 M20.005,0
		c-2.192,0-3.976,1.754-3.976,3.909v1.303h-1.349c-2.193,0-3.977,1.754-3.977,3.909v4.128c-1.548,0.535-2.662,1.986-2.662,3.689
		v5.885l-1.843,0.722c-0.67,0.262-1.005,0.999-0.753,1.662l4.317,11.395c-0.776-0.36-1.496-0.843-2.119-1.452
		c-0.26-0.255-0.6-0.382-0.941-0.382s-0.682,0.127-0.941,0.382c-1.229,1.205-2.858,1.975-4.584,2.174
		c-0.73,0.084-1.253,0.73-1.168,1.443c0.08,0.665,0.654,1.153,1.319,1.153c0.052,0,0.105-0.003,0.158-0.009
		c1.903-0.219,3.717-0.955,5.219-2.105c1.922,1.457,4.288,2.186,6.653,2.186c2.365,0,4.73-0.729,6.652-2.186
		C21.943,39.288,24.294,40,26.631,40c2.401,0,4.788-0.752,6.693-2.194c1.493,1.144,3.296,1.879,5.186,2.102
		c0.054,0.007,0.107,0.01,0.161,0.01c0.664,0,1.239-0.486,1.319-1.148c0.088-0.715-0.433-1.361-1.162-1.449
		c-1.718-0.201-3.336-0.973-4.561-2.17c-0.249-0.243-0.588-0.382-0.94-0.382c-0.354,0-0.691,0.139-0.942,0.382
		c-0.659,0.646-1.427,1.151-2.256,1.519l4.434-11.449c0.256-0.665-0.077-1.408-0.75-1.674l-1.81-0.706v-5.901
		c0-1.695-1.111-3.139-2.661-3.681V9.121c0-2.156-1.8-3.909-4.012-3.909h-1.314V3.909C24.017,1.754,22.218,0,20.005,0L20.005,0z
		 M18.691,5.211V3.909c0-0.718,0.59-1.303,1.314-1.303c0.743,0,1.35,0.584,1.35,1.303v1.303H18.691L18.691,5.211z M13.367,13.029
		V9.121c0-0.719,0.589-1.303,1.314-1.303c1.139,0,9.504,0,10.649,0c0.745,0,1.349,0.584,1.349,1.303v3.908H13.367L13.367,13.029z
		 M10.704,21.782v-4.844c0-0.719,0.589-1.302,1.313-1.302h0.018h15.958c0.743,0,1.349,0.583,1.349,1.302v4.858l-8.818-3.452
		c-0.159-0.067-0.332-0.103-0.511-0.103c-0.17,0-0.347,0.032-0.523,0.101c-0.001,0-0.002,0-0.004,0.002L10.704,21.782L10.704,21.782
		z M20.005,29.566c0.734,0,1.331-0.584,1.331-1.302v-6.796l8.672,3.393c0.108,0.062,0.227,0.108,0.351,0.139l1.251,0.491
		l-4.604,11.885c-0.113,0.004-0.227,0.007-0.341,0.007c-2.094,0-4.188-0.744-5.71-2.233c-0.26-0.255-0.601-0.382-0.941-0.382
		c-0.341,0-0.681,0.127-0.941,0.382c-1.524,1.491-3.622,2.234-5.719,2.234c-0.154,0-0.308-0.004-0.461-0.012l-4.5-11.879
		l10.281-4.024v6.796C18.674,28.982,19.27,29.566,20.005,29.566L20.005,29.566z"/>
</g>
</svg>
