<?xml version="1.0" encoding="utf-8"?>
<!-- Generator: Adobe Illustrator 16.0.3, SVG Export Plug-In . SVG Version: 6.00 Build 0)  -->
<!DOCTYPE svg PUBLIC "-//W3C//DTD SVG 1.0//EN" "http://www.w3.org/TR/2001/REC-SVG-20010904/DTD/svg10.dtd">
<svg version="1.0" xmlns="http://www.w3.org/2000/svg" xmlns:xlink="http://www.w3.org/1999/xlink" x="0px" y="0px" width="40px"
	 height="40px" viewBox="0 0 40 40" enable-background="new 0 0 40 40" xml:space="preserve">
<g id="Layer_1">
	<g>
		<path fill="#C1272D" d="M20,37c-1.917,0-14,0-14,0c-1.547,0-3-1.453-3-3V12c0-1.546,1.453-3,3-3h22c1.625,0.042,3,1.454,3,3
			c0,0,0,19.625,0,21c0,1.875,3,1.791,3,0s0-21,0-21c0-3.198-2.802-6-6-6H6c-3.198,0-6,2.802-6,6v22c0,3.198,2.802,6,6,6
			c0,0,11.709,0,14,0S21.917,37,20,37z"/>
	</g>
</g>
<g id="Layer_2">
	
		<line fill="none" stroke="#C1272D" stroke-width="5" stroke-linecap="round" stroke-linejoin="round" stroke-miterlimit="10" x1="7" y1="32.917" x2="27.083" y2="12.833"/>
	
		<line fill="none" stroke="#C1272D" stroke-width="5" stroke-linecap="round" stroke-linejoin="round" stroke-miterlimit="10" x1="7.167" y1="13.25" x2="28.583" y2="37.334"/>
</g>
</svg>
